<?xml version="1.0" encoding="utf-8"?>
<!-- Generator: Adobe Illustrator 16.0.4, SVG Export Plug-In . SVG Version: 6.00 Build 0)  -->
<!DOCTYPE svg PUBLIC "-//W3C//DTD SVG 1.1//EN" "http://www.w3.org/Graphics/SVG/1.1/DTD/svg11.dtd">
<svg version="1.1" id="레이어_1" xmlns="http://www.w3.org/2000/svg" xmlns:xlink="http://www.w3.org/1999/xlink" x="0px"
	 y="0px" width="226.7714844px" height="56.6933594px" viewBox="0 0 226.7714844 56.6933594"
	 enable-background="new 0 0 226.7714844 56.6933594" xml:space="preserve">
<g>
	<g>
		<g>
			<path fill="#77767B" d="M29.7236328,15.9628906c0,0-0.0683594,0.9638672,0.5605469,1.1757812
				c0.6992188,0.234375,1.3945312,0.6845703,1.3945312,1.8144531v-0.0009766l0.0009766,9.8808594l-0.0527344,0.0527344
				L20.5439453,15.9658203v-0.0029297h-5.3339844c0,0-0.1044922,0.9941406,0.5488281,1.1416016
				c0.7714844,0.1738281,1.6748047,0.71875,1.6748047,1.8486328v12.4541016c0,1.1289062-0.6962891,1.6367188-1.3945312,1.8720703
				c-0.6298828,0.2109375-0.5625,1.1171875-0.5625,1.1171875h1.9570312h1.7871094h1.9570312
				c0,0,0.0673828-0.90625-0.5634766-1.1171875c-0.6972656-0.2353516-1.3935547-0.7431641-1.3935547-1.8720703V19.6337891
				l13,14.9121094h1.2529297V18.8828125c0.0292969-1.0751953,0.7041016-1.5136719,1.3886719-1.7441406
				c0.6279297-0.2119141,0.5615234-1.1757812,0.5615234-1.1757812H29.7236328z"/>
			<path fill="#77767B" d="M47.6523438,15.5917969c-0.1191406-0.0019531-0.578125-0.0019531-0.6982422,0
				c-6.4472656,0.2167969-9.6796875,4.9208984-9.5107422,9.9775391c0.1787109,5.3720703,4.3837891,9.2548828,9.8603516,9.2148438
				c5.4746094,0.0400391,9.6728516-3.8427734,9.8515625-9.2148438
				C57.3251953,20.5126953,54.0986328,15.8085938,47.6523438,15.5917969z M53.2949219,25.5693359
				c-0.1865234,5.5732422-2.7822266,7.9921875-5.9912109,7.9921875c-3.1914062,0-5.9921875-2.4189453-5.9921875-7.9921875
				c0-4.1806641,2.0761719-8.7529297,5.9921875-8.7529297C51.3134766,16.8164062,53.4355469,21.3916016,53.2949219,25.5693359z"/>
			<path fill="#77767B" d="M88.3046875,15.5917969c-0.1181641-0.0019531-0.5791016-0.0019531-0.6982422,0
				c-6.4472656,0.2167969-9.6796875,4.9208984-9.5117188,9.9775391c0.1787109,5.3720703,4.3847656,9.2548828,9.8603516,9.2148438
				c5.4775391,0.0400391,9.6728516-3.8427734,9.8515625-9.2148438
				C97.9775391,20.5126953,94.7509766,15.8085938,88.3046875,15.5917969z M93.9462891,25.5693359
				c-0.1855469,5.5732422-2.78125,7.9921875-5.9912109,7.9921875c-3.1904297,0-5.9912109-2.4189453-5.9912109-7.9921875
				c0-4.4912109,2.0751953-8.7529297,5.9912109-8.7529297C91.9560547,16.8164062,94.0986328,21.0820312,93.9462891,25.5693359z"/>
			<path fill="#77767B" d="M110.6386719,15.5917969c-0.1181641-0.0019531-0.5791016-0.0019531-0.6972656,0
				c-6.4482422,0.2167969-9.6806641,4.9208984-9.5117188,9.9775391c0.1787109,5.3720703,4.3837891,9.2548828,9.8603516,9.2148438
				c5.4746094,0.0400391,9.6738281-3.8427734,9.8535156-9.2148438
				C120.3134766,20.5126953,117.0849609,15.8085938,110.6386719,15.5917969z M116.2802734,25.5693359
				c-0.1845703,5.5732422-2.78125,7.9921875-5.9902344,7.9921875c-3.1914062,0-5.9921875-2.4189453-5.9921875-7.9921875
				c0-4.4912109,2.0761719-8.7529297,5.9921875-8.7529297C114.3007812,16.8164062,116.421875,21.3916016,116.2802734,25.5693359z"/>
			<path fill="#77767B" d="M74.9677734,20.9521484c0-3.8232422-3.1787109-4.9892578-7.0771484-4.9892578h-8.5634766
				c0,0-0.0917969,0.9335938,0.6230469,1.1464844c0.7597656,0.2255859,1.5996094,0.7138672,1.5996094,1.84375v12.4541016
				c0,1.1289062-0.6953125,1.6367188-1.3945312,1.8720703c-0.6289062,0.2109375-0.5615234,1.1171875-0.5615234,1.1171875
				l7.5009766-0.0009766c0,0,0.0576172-0.9355469-0.6230469-1.1464844c-0.7597656-0.234375-1.5996094-0.3251953-1.5996094-1.8427734
				V17.3203125c0,0,1.1113281,0,1.9111328,0c3.0898438,0,4.6591797,1.2441406,4.6591797,3.6162109
				c0,2.9667969-2.3613281,4.1005859-4.7412109,4.2138672c-0.0039062,0.2617188,0.0009766,0.5683594,0.2353516,0.9072266
				c0.0458984,0.0654297,4.1230469,5.1738281,4.2636719,5.3535156c0.6171875,0.7880859,1.5664062,1.9121094,2.0507812,2.3076172
				c2.1826172,1.7832031,4.7822266,1.0527344,4.7822266,1.0527344l-7.4326172-9.2119141
				C72.9824219,24.9501953,74.9677734,23.5371094,74.9677734,20.9521484z"/>
		</g>
		<path fill="#D80212" d="M120.5224609,39.8886719c-0.0351562,0-0.0722656-0.0009766-0.109375-0.0019531
			c-17.5146484-0.4394531-35.0839844-0.6601562-52.7050781-0.6601562c-17.6269531,0-35.2011719,0.2207031-52.7197266,0.6611328
			c-0.0419922,0-0.0810547,0.0019531-0.1201172,0.0019531c-0.1357422,0-0.1357422,0.2734375-0.1357422,0.2734375
			s0,0.2753906,0.1591797,0.2753906c0.0361328,0,0.0722656,0.0019531,0.1083984,0.0029297
			c17.5166016,0.4394531,35.0859375,0.6611328,52.7080078,0.6611328c17.625,0,35.1992188-0.2216797,52.7197266-0.6611328
			c0.0380859-0.0009766,0.0791016-0.0029297,0.1191406-0.0029297c0.1337891,0,0.1337891-0.2744141,0.1337891-0.2744141
			S120.6806641,39.8886719,120.5224609,39.8886719z"/>
	</g>
	<g>
		<g>
			<path fill="#656468" d="M173.7080078,27.9599609h-4.8242188v-1.0136719l0.0605469-0.0117188
				c0.7519531-0.1503906,1.3671875-0.4423828,1.8310547-0.8662109c0.4589844-0.4169922,0.6933594-0.8896484,0.6933594-1.3974609
				c0-0.2529297-0.0527344-0.4960938-0.1572266-0.7216797c-0.1025391-0.2285156-0.2509766-0.4365234-0.4365234-0.6240234
				l-0.1318359-0.1279297h1.5214844c0.484375,0,0.5410156-0.2509766,0.5410156-0.4404297
				c0-0.1875-0.0566406-0.4414062-0.5410156-0.4414062h-3.3515625c0.0058594-0.4140625,0.015625-0.8271484,0.0175781-1.2402344
				c0-0.0947266,0.0175781-0.1923828-0.0019531-0.2861328c-0.0410156-0.2099609-0.2802734-0.1904297-0.4335938-0.1953125
				c-0.1650391-0.0039062-0.3320312-0.0039062-0.4960938-0.0048828c-0.3681641-0.0009766-0.7353516-0.0019531-1.1025391-0.0058594
				c-0.078125-0.0009766-0.1669922-0.0136719-0.2441406-0.0009766c-0.1025391,0.0136719-0.2119141-0.0019531-0.2236328,0.1376953
				c-0.0097656,0.1269531,0.0644531,0.2373047,0.2304688,0.3339844c0.203125,0.1162109,0.3203125,0.2861328,0.34375,0.5117188
				l0.0322266,0.4765625v0.2734375h-2.4589844l-0.8212891-0.0078125c-0.4130859,0-0.5996094-0.0126953-0.6455078,0.0507812
				c-0.0107422,0.0146484-0.015625,0.0292969-0.015625,0.0488281c0,0.0292969,0.0126953,0.0673828,0.0302734,0.1123047
				l0.2998047,0.4345703c0.0107422,0.0380859,0.1005859,0.0996094,0.1298828,0.1279297
				c0.1181641,0.1162109,0.2822266,0.1152344,0.4384766,0.1152344h1.1123047l-0.1367188,0.1279297
				c-0.1982422,0.1875-0.3457031,0.3964844-0.4453125,0.6240234c-0.0976562,0.2216797-0.1455078,0.4658203-0.1455078,0.7216797
				c0,0.5078125,0.2294922,0.9804688,0.6826172,1.3974609c0.4628906,0.4238281,1.0722656,0.7158203,1.8242188,0.8662109
				l0.0595703,0.0117188v1.0136719h-3.6103516l-0.9306641-0.0126953c-0.3193359-0.0146484-0.6513672-0.03125-0.7080078,0.0429688
				c-0.0068359,0.0087891-0.0097656,0.0224609-0.0097656,0.0390625c0,0.0302734,0.0136719,0.0830078,0.0371094,0.1054688
				c0.015625,0.015625,0.4804688,0.5742188,0.5019531,0.6005859c0,0.0009766,0,0.0019531,0,0.0029297
				c0.0449219,0.0478516,0.0800781,0.1005859,0.1503906,0.1142578c0.0976562,0.0185547,0.2714844,0.0185547,0.3242188,0.0185547
				h11.0097656c0.5019531,0,0.5556641-0.2617188,0.5556641-0.4570312
				C174.2636719,28.2177734,174.2099609,27.9599609,173.7080078,27.9599609z M166.7167969,25.7041016
				c-0.3134766-0.2861328-0.4755859-0.6337891-0.4755859-1.0332031s0.1621094-0.7451172,0.4755859-1.0341797
				c0.3173828-0.2792969,0.7197266-0.4248047,1.1972656-0.4248047c0.4765625,0,0.8798828,0.1455078,1.2021484,0.4248047
				c0.3242188,0.2851562,0.4882812,0.6347656,0.4882812,1.0341797s-0.1640625,0.7470703-0.4882812,1.0332031
				c-0.3183594,0.2822266-0.7236328,0.4248047-1.2021484,0.4248047
				C167.4326172,26.1289062,167.0341797,25.9833984,166.7167969,25.7041016z"/>
			<path fill="#656468" d="M171.9716797,33.8623047c-0.0205078,0-5.7724609-0.0029297-5.8212891-0.0039062
				c-0.0771484-0.0019531-0.2089844-0.046875-0.2636719-0.1005859c-0.1416016-0.1425781-0.1396484-0.2480469-0.1396484-0.3544922
				c0-0.0507812,0-0.5839844,0-0.5839844h5.8730469c0.1289062,0,0.2402344-0.0576172,0.3398438-0.171875
				c0.1044922-0.1201172,0.1542969-0.2626953,0.1542969-0.4287109v-2.0292969c0-0.0537109-0.0126953-0.1230469-0.0410156-0.1689453
				c-0.0273438-0.0449219-0.1103516-0.0625-0.1621094-0.0625h-8.4814453c-0.0996094,0-0.1669922,0.0195312-0.1875,0.0566406
				c-0.0058594,0.0126953-0.0107422,0.0273438-0.0107422,0.0458984c0,0.0429688,0.0234375,0.0947266,0.0380859,0.1152344
				c0.1298828,0.1835938,0.2373047,0.3701172,0.4130859,0.5146484c0.1425781,0.1142578,0.3369141,0.109375,0.5107422,0.1337891
				h5.9931641v1.1318359c-0.0234375,0-6.6318359,0-6.7177734,0c-0.0761719,0.0009766-0.1523438,0-0.2275391,0
				c-0.0644531,0.0009766-0.1699219-0.0068359-0.2128906,0.0361328c-0.03125,0.0322266-0.0351562,0.0800781-0.0351562,0.1201172
				c0,0.0449219,0,0.1835938,0.3671875,0.2705078c0.3125,0.0771484,0.4775391,0.3330078,0.4775391,0.7587891v0.1533203
				c0,0.4033203,0.0673828,0.7470703,0.2587891,1.0292969c0.1777344,0.2617188,0.5878906,0.4042969,1.2646484,0.4042969h6.6103516
				c0.2851562,0,0.4179688-0.1396484,0.4179688-0.4345703C172.3896484,33.9980469,172.2568359,33.8623047,171.9716797,33.8623047z"
				/>
			<path fill="#656468" d="M201.4169922,32.2294922h-10.3769531l-0.9277344-0.0107422
				c-0.3222656-0.0166016-0.6523438-0.0332031-0.7109375,0.0419922c-0.0078125,0.0078125-0.0097656,0.0205078-0.0097656,0.0371094
				c0,0.0273438,0.0117188,0.0761719,0.0322266,0.0976562c0.0136719,0.0146484,0.1123047,0.1318359,0.1484375,0.1777344
				c0.0537109,0.0703125,0.1123047,0.1367188,0.1689453,0.2050781c0.0683594,0.0830078,0.1425781,0.1640625,0.2089844,0.2470703
				c0.0410156,0.0498047,0.0761719,0.0878906,0.1416016,0.0976562c0.0458984,0.0058594,0.1318359,0.015625,0.2099609,0.015625
				c0.15625,0,11.1083984,0.0029297,11.1152344,0.0029297c0.4970703,0,0.5576172-0.2607422,0.5576172-0.4570312
				C201.9746094,32.4892578,201.9140625,32.2294922,201.4169922,32.2294922z"/>
			<path fill="#656468" d="M186.7890625,21.0810547c-0.0556641-0.0458984-0.1591797-0.046875-0.1591797-0.0449219
				l-2.5488281,0.0087891c-0.0244141-0.0029297-0.078125-0.0087891-0.1171875,0.125
				c-0.03125,0.0947266-0.0039062,0.1669922,0.0898438,0.2304688C184.0517578,21.3984375,184.6552734,21.75,184.6552734,21.75
				c0.2753906,0.15625,0.4160156,0.4130859,0.4160156,0.7568359v3.7373047l-0.0253906,0.0224609
				c-0.4160156,0.3798828-0.9863281,0.6083984-1.6855469,0.6865234c-0.6855469,0.078125-1.5117188,0.1142578-2.453125,0.1025391
				h-1.6904297c-0.1835938,0-0.3447266-0.0244141-0.4667969-0.1044922
				c-0.1259766-0.0839844-0.2216797-0.2753906-0.2216797-0.5966797v-3.1230469h3.9648438
				c0.1542969,0,0.2714844-0.0361328,0.3398438-0.1064453c0.0664062-0.0703125,0.0996094-0.1787109,0.0996094-0.3173828
				c-0.0039062-0.2910156-0.1464844-0.4267578-0.4394531-0.4267578h-6.4433594
				c-0.0664062,0-0.0898438,0.0302734-0.0996094,0.0556641c-0.0546875,0.1396484-0.0351562,0.2119141,0.0957031,0.2822266
				c0.2099609,0.1152344,0.3769531,0.28125,0.5292969,0.4648438c0.0566406,0.0693359,0.1035156,0.1376953,0.1269531,0.2236328
				s0.0371094,0.1728516,0.0449219,0.2607422c0.0058594,0.0585938,0.0078125,0.1171875,0.0078125,0.1767578v2.7832031
				c0,0.3417969,0.0878906,0.6308594,0.1855469,0.8222656c0.1542969,0.3007812,0.4121094,0.4541016,0.953125,0.4541016h3.3535156
				c0.9648438-0.0107422,1.7568359-0.078125,2.3496094-0.203125c0.5898438-0.1259766,1.0429688-0.3310547,1.3515625-0.6044922
				l0.1230469-0.1152344c0,0.0556641,0,0.1123047,0,0.1679688c0,0.1357422,0,0.2705078,0,0.4072266
				c0,0.1679688,0,0.3359375,0,0.5039062c0,0.1533203-0.0009766,0.3076172,0,0.4609375
				c0.0009766,0.0986328,0.0039062,0.1962891,0.0039062,0.2929688c0,0.0839844,0.0205078,0.1835938,0.0625,0.2294922
				c0.0253906,0.0292969,0.0820312,0.0478516,0.1171875,0.0556641c0.1484375,0.0332031,0.4716797,0.0205078,0.6933594,0.0205078
				c0.2792969,0,0.4589844-0.1142578,0.6328125-0.3535156c0.1748047-0.2402344,0.2617188-0.5175781,0.2617188-0.8164062
				c0,0,0.0019531-6.7197266,0-6.7402344C186.8359375,21.1640625,186.8300781,21.1152344,186.7890625,21.0810547z"/>
			<path fill="#656468" d="M185.0566406,29.8730469c-0.7890625-0.5136719-1.6591797-0.7734375-2.5810547-0.7734375
				c-0.9238281,0-1.7900391,0.2597656-2.5722656,0.7695312c-0.7724609,0.5078125-1.1660156,1.2568359-1.1660156,2.2294922
				c0,0.9746094,0.3935547,1.7226562,1.1660156,2.2304688c0.7822266,0.5097656,1.6484375,0.7695312,2.5722656,0.7695312
				c0.921875,0,1.7919922-0.2597656,2.5810547-0.7695312c0.7783203-0.5078125,1.1708984-1.2558594,1.1708984-2.2304688
				C186.2275391,31.1259766,185.8349609,30.3779297,185.0566406,29.8730469z M183.8046875,33.6220703
				c-0.4033203,0.3867188-0.8496094,0.5830078-1.3291016,0.5830078c-0.5009766,0-0.9492188-0.1982422-1.3349609-0.5830078
				c-0.3886719-0.3857422-0.5849609-0.8994141-0.5849609-1.5234375c0-0.6328125,0.1962891-1.1435547,0.5849609-1.5205078
				c0.3857422-0.3769531,0.8339844-0.5673828,1.3349609-0.5673828c0.4794922,0,0.9257812,0.1904297,1.3291016,0.5654297
				c0.4003906,0.3789062,0.6044922,0.8925781,0.6044922,1.5224609
				C184.4091797,32.7226562,184.2050781,33.2363281,183.8046875,33.6220703z"/>
			<path fill="#656468" d="M190.6142578,29.9267578c0.0517578,0.0214844,0.1513672,0.0322266,0.3554688-0.0585938
				c0.9121094-0.4121094,1.7753906-0.9228516,2.5683594-1.5205078c0.7929688-0.5908203,1.4921875-1.2636719,2.078125-1.9931641
				l0.0576172-0.0673828l0.0576172,0.0673828c0.7089844,0.8027344,1.4033203,1.4570312,2.0546875,1.9492188
				c0.6552734,0.4912109,1.2558594,0.859375,1.7753906,1.0908203c0.3027344,0.1347656,0.5371094,0.1855469,0.6933594,0.1494141
				c0.1542969-0.0361328,0.2705078-0.1240234,0.3535156-0.2705078c0.1054688-0.2275391,0.0292969-0.5595703-0.2324219-0.9853516
				c-0.2685547-0.4443359-0.5830078-0.8261719-0.9238281-1.1376953c-0.1308594-0.1220703-0.2919922-0.1972656-0.484375-0.2197266
				c-0.1894531-0.0449219-0.3808594-0.0703125-0.5673828-0.1220703c-0.1845703-0.0498047-0.3525391-0.1396484-0.5253906-0.2197266
				c-0.2939453-0.1367188-0.5566406-0.2685547-0.8232422-0.4511719c-0.2304688-0.15625-0.4570312-0.3183594-0.6855469-0.4765625
				c-0.0078125-0.0058594-0.1650391-0.1162109-0.1660156-0.1152344l0.0429688-0.0566406
				c0.2636719-0.4160156,0.5732422-1.0986328,0.7324219-1.4667969c0.0966797-0.2246094,0.1835938-0.4521484,0.2597656-0.6845703
				c0.0703125-0.2148438,0.1552734-0.4267578,0.1699219-0.6542969c0.0087891-0.1171875,0.0371094-0.2773438,0.0136719-0.3925781
				c-0.0175781-0.0869141-0.0634766-0.2089844-0.3017578-0.2324219c0,0-2.9130859-0.0234375-2.9169922-0.0234375
				c-0.0966797-0.0009766-0.1826172,0.0380859-0.1806641,0.1464844c0.0029297,0.1914062,0.0869141,0.2216797,0.1162109,0.2333984
				l0.5488281,0.2753906c0.2109375,0.1337891,0.3046875,0.3359375,0.2792969,0.5996094
				c-0.0917969,0.8193359-0.5263672,1.8242188-1.2939453,2.9853516c-0.765625,1.1601562-1.7763672,2.2109375-3.0107422,3.1240234
				c-0.1259766,0.0966797-0.1679688,0.2265625-0.1230469,0.4082031
				C190.5498047,29.8671875,190.5761719,29.9082031,190.6142578,29.9267578z"/>
			<path fill="#656468" d="M158.9326172,29.4658203h-10.7480469h-0.9667969c-0.1289062,0-0.2578125-0.0019531-0.3857422-0.0029297
				c-0.0908203,0-0.1806641,0.0039062-0.2705078,0.0175781c-0.015625,0.0039062-0.03125,0.0068359-0.0449219,0.0166016
				c-0.0244141,0.0166016-0.0429688,0.03125-0.0429688,0.0615234c0,0.0664062,0.0449219,0.1064453,0.0820312,0.1513672
				c0.0371094,0.046875,0.3779297,0.4736328,0.3955078,0.4951172c0.0664062,0.0839844,0.1396484,0.1777344,0.2460938,0.2060547
				c0.1025391,0.0263672,0.2236328,0.0175781,0.328125,0.0175781h4.5107422
				c0.0068359,0.3330078,0.0097656,4.4716797,0.0097656,4.4921875c0,0.1894531,0.1425781,0.3076172,0.2939453,0.3076172h0.6162109
				c0.2675781-0.0029297,0.484375-0.1220703,0.6738281-0.3730469c0.1904297-0.2548828,0.2832031-0.5332031,0.2832031-0.8359375
				c0,0-0.0048828-3.2890625-0.0078125-3.5996094h5.0292969c0.5117188,0,0.5732422-0.2773438,0.5732422-0.484375
				C159.5078125,29.734375,159.4462891,29.4658203,158.9326172,29.4658203z"/>
			<path fill="#656468" d="M133.2607422,22.2724609l0.5527344,0.2646484c0.2734375,0.1298828,0.421875,0.3417969,0.421875,0.6269531
				l0.0048828,3.3193359c-0.0068359,0.5195312,0.1298828,0.875,0.4433594,1.0820312
				c0.3154297,0.2041016,0.6123047,0.296875,0.890625,0.296875l7.5849609-0.0117188
				c0.3095703,0,0.453125-0.1533203,0.4580078-0.4863281c0.0009766-0.1777344-0.0380859-0.2919922-0.1152344-0.375
				c-0.0712891-0.0732422-0.1884766-0.1083984-0.3427734-0.1083984l-6.2265625,0.0107422
				c-0.2988281,0-0.5078125-0.0625-0.6308594-0.1953125c-0.1132812-0.1191406-0.1640625-0.3134766-0.1640625-0.6113281
				c0-0.0253906,0-0.0556641,0-0.0859375c0,0-0.0068359-3.7792969-0.0068359-3.7871094
				c0-0.0693359-0.0175781-0.1347656-0.0615234-0.1884766c-0.0361328-0.0439453-0.1074219-0.0976562-0.1875-0.1103516
				c-0.0332031-0.0058594-2.4384766,0.0009766-2.5410156,0c-0.0390625-0.0009766-0.0878906-0.0029297-0.1240234,0.0146484
				c-0.0439453,0.0205078-0.0673828,0.0761719-0.0820312,0.1181641
				C133.1210938,22.0849609,133.0839844,22.1777344,133.2607422,22.2724609z"/>
			<path fill="#656468" d="M144.5205078,32.3515625h-4.7744141c-0.0009766-0.0253906,0.0009766-2.6220703,0-2.7080078
				c-0.0009766-0.0595703,0.0009766-0.1191406,0-0.1787109c-0.0029297-0.0898438-0.0263672-0.2480469-0.1445312-0.25
				l-0.625-0.0078125l-1.7138672-0.0253906c-0.0351562-0.0019531-0.0654297,0.0117188-0.0917969,0.0351562
				c-0.0371094,0.0322266-0.0693359,0.0703125-0.0800781,0.1201172c-0.0087891,0.0439453-0.0175781,0.09375,0.0263672,0.1210938
				c0.0419922,0.0263672,0.0820312,0.0595703,0.1210938,0.0888672c0.0087891,0.0078125,0.0205078,0.0166016,0.0302734,0.0244141
				c0.0146484,0.0087891,0.4697266,0.3681641,0.4697266,0.3681641c0.1269531,0.1396484,0.1845703,0.3710938,0.1845703,0.7226562
				v1.6894531h-3.7070312l-1.2441406-0.0292969c-0.265625,0-0.3408203,0.0664062-0.3613281,0.0957031
				c-0.046875,0.0898438,0.0292969,0.1923828,0.0742188,0.265625c0.1113281,0.1816406,0.2480469,0.4990234,0.4570312,0.5908203
				c0.1269531,0.0566406,0.28125,0.046875,0.4189453,0.046875h10.9609375c0.3945312,0,0.5800781-0.1748047,0.5751953-0.5019531
				C145.0966797,32.4892578,144.9160156,32.3515625,144.5205078,32.3515625z"/>
			<path fill="#656468" d="M148.1845703,24.75c0.3222656,0.0888672,0.4853516,0.3447266,0.4853516,0.7353516l0.0029297,1.0917969
				c0.0136719,0.4414062,0.1367188,0.7431641,0.3886719,0.9619141c0.2480469,0.2060547,0.5410156,0.3164062,0.8457031,0.3359375
				h7.5957031c0.3027344-0.0039062,0.4501953-0.1679688,0.4541016-0.4882812c0-0.1621094-0.0341797-0.2832031-0.1083984-0.3613281
				c-0.0742188-0.0722656-0.1884766-0.109375-0.3486328-0.109375h-6.1787109c-0.171875,0-0.3193359-0.0234375-0.4277344-0.1054688
				c-0.1191406-0.0888672-0.1767578-0.2275391-0.1777344-0.4208984v-1.1269531h6.3525391
				c0.1601562,0,0.2822266-0.0458984,0.3681641-0.1298828c0.0878906-0.0917969,0.1269531-0.2226562,0.1269531-0.4121094
				c0-0.2539062-0.0019531-2.3496094-0.0019531-2.4482422c0-0.2929688,0.0039062-0.5146484-0.0693359-0.5878906
				c-0.0185547-0.0195312-0.0595703-0.0605469-0.1884766-0.0605469h-7.6298828h-1.1181641
				c-0.1992188,0-0.3261719,0.0771484-0.3671875,0.1464844c-0.0185547,0.0224609-0.0195312,0.0449219-0.0195312,0.0673828
				c0,0.0507812,0.0195312,0.0869141,0.0195312,0.0869141l0.3085938,0.4941406
				c0.0664062,0.0947266,0.1513672,0.1484375,0.2578125,0.1699219c0.546875,0.0302734,1.0957031,0.0253906,1.6435547,0.0214844
				c0.5126953-0.0019531,1.0283203,0.0019531,1.5429688-0.0009766c0.5478516-0.0009766,1.0957031,0.0009766,1.6435547,0
				c0.4453125-0.0029297,0.8925781,0,1.3398438-0.0019531c0.2089844-0.0009766,0.4179688,0.0019531,0.640625-0.0009766v1.7314453
				h-7.6113281c-0.0361328,0.0058594-0.078125,0.0136719-0.1132812,0.0292969
				c-0.0400391,0.0185547-0.03125,0.0771484-0.03125,0.1132812C147.8095703,24.6103516,148.0126953,24.6962891,148.1845703,24.75z"
				/>
		</g>
	</g>
</g>
</svg>
